<svg width="62" height="62" viewBox="0 0 62 62" fill="none" xmlns="http://www.w3.org/2000/svg">
<path d="M59 11H3V57H59V11Z" fill="#CCCCCC"/>
<path d="M56 11H3V57H56V11Z" fill="#F2F2F2"/>
<path d="M31 11H41V20C41 21.3261 40.4732 22.5979 39.5355 23.5355C38.5979 24.4732 37.3261 25 36 25C34.6739 25 33.4021 24.4732 32.4645 23.5355C31.5268 22.5979 31 21.3261 31 20V11Z" fill="#A42224"/>
<path d="M34.5 24.75C35.5118 24.4318 36.3962 23.8001 37.0253 22.9463C37.6545 22.0924 37.9958 21.0606 38 20V11H31V20C31.0042 21.0606 31.3455 22.0924 31.9747 22.9463C32.6038 23.8001 33.4882 24.4318 34.5 24.75Z" fill="#DA383B"/>
<path d="M21 11H31V20C31 21.3261 30.4732 22.5979 29.5355 23.5355C28.5979 24.4732 27.3261 25 26 25C24.6739 25 23.4021 24.4732 22.4645 23.5355C21.5268 22.5979 21 21.3261 21 20V11Z" fill="#A42224"/>
<path d="M24.5 24.75C25.5118 24.4318 26.3962 23.8001 27.0253 22.9463C27.6545 22.0924 27.9958 21.0606 28 20V11H21V20C21.0042 21.0606 21.3455 22.0924 21.9747 22.9463C22.6038 23.8001 23.4882 24.4318 24.5 24.75Z" fill="#DA383B"/>
<path d="M31 23C37.0751 23 42 18.0751 42 12C42 5.92487 37.0751 1 31 1C24.9249 1 20 5.92487 20 12C20 18.0751 24.9249 23 31 23Z" fill="#CCCCCC"/>
<path d="M29.5 22.89C34.7467 22.89 39 18.0144 39 12C39 5.98562 34.7467 1.11 29.5 1.11C24.2533 1.11 20 5.98562 20 12C20 18.0144 24.2533 22.89 29.5 22.89Z" fill="#F2F2F2"/>
<path d="M53 29H43V33H53V29Z" fill="#A42224"/>
<path d="M50 29H43V33H50V29Z" fill="#DA383B"/>
<path d="M55 37H41V57H55V37Z" fill="#98856E"/>
<path d="M52 37H41V57H52V37Z" fill="#CBB292"/>
<path d="M35 45H7V51H35V45Z" fill="#98856E"/>
<path d="M32 45H7V51H32V45Z" fill="#CBB292"/>
<path d="M35 29H7V45H35V29Z" fill="#E5D8C8"/>
<path d="M32 29H7V45H32V29Z" fill="#EFE7DE"/>
<path d="M61 57H1V61H61V57Z" fill="#5F443E"/>
<path d="M58 57H1V61H58V57Z" fill="#7F5B53"/>
<path d="M28 7H36V15C36 15.5304 35.7893 16.0391 35.4142 16.4142C35.0391 16.7893 34.5304 17 34 17H30C29.4696 17 28.9609 16.7893 28.5858 16.4142C28.2107 16.0391 28 15.5304 28 15V7Z" fill="#98856E"/>
<path d="M33 15V7H28V15C28 15.5304 28.2107 16.0391 28.5858 16.4142C28.9609 16.7893 29.4696 17 30 17H31C31.5304 17 32.0391 16.7893 32.4142 16.4142C32.7893 16.0391 33 15.5304 33 15Z" fill="#CBB292"/>
<path d="M51 11H61V20C61 21.3261 60.4732 22.5979 59.5355 23.5355C58.5979 24.4732 57.3261 25 56 25C54.6739 25 53.4021 24.4732 52.4645 23.5355C51.5268 22.5979 51 21.3261 51 20V11Z" fill="#A42224"/>
<path d="M54.5 24.75C55.5118 24.4318 56.3962 23.8001 57.0253 22.9463C57.6545 22.0924 57.9958 21.0606 58 20V11H51V20C51.0042 21.0606 51.3455 22.0924 51.9747 22.9463C52.6038 23.8001 53.4882 24.4318 54.5 24.75Z" fill="#DA383B"/>
<path d="M41 11H51V20C51 21.3261 50.4732 22.5979 49.5355 23.5355C48.5979 24.4732 47.3261 25 46 25C44.6739 25 43.4021 24.4732 42.4645 23.5355C41.5268 22.5979 41 21.3261 41 20V11Z" fill="#A42224"/>
<path d="M44.5 24.75C45.5118 24.4318 46.3962 23.8001 47.0253 22.9463C47.6545 22.0924 47.9958 21.0606 48 20V11H41V20C41.0042 21.0606 41.3455 22.0924 41.9747 22.9463C42.6038 23.8001 43.4882 24.4318 44.5 24.75Z" fill="#DA383B"/>
<path d="M11 11H21V20C21 21.3261 20.4732 22.5979 19.5355 23.5355C18.5979 24.4732 17.3261 25 16 25C14.6739 25 13.4021 24.4732 12.4645 23.5355C11.5268 22.5979 11 21.3261 11 20V11Z" fill="#A42224"/>
<path d="M14.5 24.75C15.5118 24.4318 16.3962 23.8001 17.0253 22.9463C17.6545 22.0924 17.9958 21.0606 18 20V11H11V20C11.0042 21.0606 11.3455 22.0924 11.9747 22.9463C12.6038 23.8001 13.4882 24.4318 14.5 24.75Z" fill="#DA383B"/>
<path d="M1 11H11V20C11 20.6566 10.8707 21.3068 10.6194 21.9134C10.3681 22.52 9.99983 23.0712 9.53553 23.5355C9.07124 23.9998 8.52004 24.3681 7.91342 24.6194C7.30679 24.8707 6.65661 25 6 25C4.67392 25 3.40215 24.4732 2.46447 23.5355C1.52678 22.5979 1 21.3261 1 20V11Z" fill="#A42224"/>
<path d="M4.5 24.75C5.51177 24.4318 6.39616 23.8001 7.02532 22.9463C7.65448 22.0924 7.99582 21.0606 8 20V11H1V20C1.00418 21.0606 1.34552 22.0924 1.97468 22.9463C2.60384 23.8001 3.48823 24.4318 4.5 24.75Z" fill="#DA383B"/>
<path d="M61 57H1V61H61V57Z" stroke="black" stroke-width="2" stroke-linejoin="round"/>
<path d="M59 24V57" stroke="black" stroke-width="2" stroke-linejoin="round"/>
<path d="M3 57V24" stroke="black" stroke-width="2" stroke-linejoin="round"/>
<path d="M1 11H11V20C11 20.6566 10.8707 21.3068 10.6194 21.9134C10.3681 22.52 9.99983 23.0712 9.53553 23.5355C9.07124 23.9998 8.52004 24.3681 7.91342 24.6194C7.30679 24.8707 6.65661 25 6 25C4.67392 25 3.40215 24.4732 2.46447 23.5355C1.52678 22.5979 1 21.3261 1 20V11Z" stroke="black" stroke-width="2" stroke-linejoin="round"/>
<path d="M21 16.59V20C21 21.3261 20.4732 22.5979 19.5355 23.5355C18.5979 24.4732 17.3261 25 16 25C14.6739 25 13.4021 24.4732 12.4645 23.5355C11.5268 22.5979 11 21.3261 11 20V11H20.05" stroke="black" stroke-width="2" stroke-linejoin="round"/>
<path d="M30 23C29.5343 23.621 28.9303 24.125 28.2361 24.4721C27.5418 24.8193 26.7762 25 26 25C24.6739 25 23.4021 24.4732 22.4645 23.5355C21.5268 22.5978 21 21.3261 21 20V16.59" stroke="black" stroke-width="2" stroke-linejoin="round"/>
<path d="M41 16.59V20C41 21.3261 40.4732 22.5978 39.5355 23.5355C38.5979 24.4732 37.3261 25 36 25C35.2238 25 34.4582 24.8193 33.7639 24.4721C33.0697 24.125 32.4657 23.621 32 23" stroke="black" stroke-width="2" stroke-linejoin="round"/>
<path d="M42 11H51V20C51 21.3261 50.4732 22.5979 49.5355 23.5355C48.5979 24.4732 47.3261 25 46 25C44.6739 25 43.4021 24.4732 42.4645 23.5355C41.5268 22.5979 41 21.3261 41 20V16.59" stroke="black" stroke-width="2" stroke-linejoin="round"/>
<path d="M51 11H61V20C61 21.3261 60.4732 22.5979 59.5355 23.5355C58.5979 24.4732 57.3261 25 56 25C54.6739 25 53.4021 24.4732 52.4645 23.5355C51.5268 22.5979 51 21.3261 51 20V11Z" stroke="black" stroke-width="2" stroke-linejoin="round"/>
<path d="M31 23C37.0751 23 42 18.0751 42 12C42 5.92487 37.0751 1 31 1C24.9249 1 20 5.92487 20 12C20 18.0751 24.9249 23 31 23Z" stroke="black" stroke-width="2" stroke-linejoin="round"/>
<path d="M28 7H36V15C36 15.5304 35.7893 16.0391 35.4142 16.4142C35.0391 16.7893 34.5304 17 34 17H30C29.4696 17 28.9609 16.7893 28.5858 16.4142C28.2107 16.0391 28 15.5304 28 15V7Z" stroke="black" stroke-width="2" stroke-linejoin="round"/>
<path d="M27 10H26C25.2044 10 24.4413 10.2107 23.8787 10.5858C23.3161 10.9609 23 11.4696 23 12C23 12.5304 23.3161 13.0391 23.8787 13.4142C24.4413 13.7893 25.2044 14 26 14H27" stroke="black" stroke-width="2" stroke-linejoin="round"/>
<path d="M35 29H7V51H35V29Z" stroke="black" stroke-width="2" stroke-linejoin="round"/>
<path d="M41 57V37H55V57" stroke="black" stroke-width="2" stroke-linejoin="round"/>
<path d="M7 45H35" stroke="black" stroke-width="2" stroke-linejoin="round"/>
<path d="M45 44V50" stroke="black" stroke-width="2" stroke-linejoin="round"/>
<path d="M53 29H43V33H53V29Z" stroke="black" stroke-width="2" stroke-linejoin="round"/>
</svg>
